<?xml version="1.0" encoding="UTF-8"?>
<svg id="Layer_1" xmlns="http://www.w3.org/2000/svg" baseProfile="tiny" version="1.2" xmlns:xlink="http://www.w3.org/1999/xlink" viewBox="0 0 24 24">
  <!-- Generator: Adobe Illustrator 29.8.2, SVG Export Plug-In . SVG Version: 2.1.1 Build 3)  -->
  <defs>
    <linearGradient id="linear-gradient" x1="3.52" y1="20.48" x2="20.48" y2="3.52" gradientUnits="userSpaceOnUse">
      <stop offset="0" stop-color="#284897"/>
      <stop offset="1" stop-color="#1b90cf"/>
    </linearGradient>
  </defs>
  <path d="M12,.01C18.62.01,23.99,5.38,23.99,12s-5.37,11.99-11.99,11.99S.01,18.62.01,12,5.38.01,12,.01h0ZM7.27,15.02c1.71,0,2.95-1.04,2.95-2.74s-1.24-2.73-2.96-2.73h-2.3v5.47h2.31ZM13.58,15.12c1.67,0,2.92-1.16,2.92-2.83s-1.25-2.83-2.92-2.83-2.93,1.17-2.93,2.83,1.25,2.83,2.93,2.83h0ZM20.03,15.02v-3.74h1.16v-1.73h-4.47v1.73h1.25v3.74h2.06Z" fill="url(#linear-gradient)" fill-rule="evenodd"/>
</svg>